<svg width="20" height="20" viewBox="0 0 20 20" fill="none" xmlns="http://www.w3.org/2000/svg">
<path d="M4.13 12H4C3.56546 12.0019 3.14338 12.1454 2.7976 12.4085C2.45183 12.6717 2.20117 13.0404 2.08357 13.4587C1.96596 13.877 1.9878 14.3223 2.14578 14.7271C2.30376 15.1319 2.58928 15.4742 2.95915 15.7023C3.32902 15.9304 3.76312 16.0318 4.19576 15.9912C4.6284 15.9506 5.03606 15.7702 5.35704 15.4773C5.67803 15.1844 5.89489 14.795 5.97481 14.3678C6.05473 13.9407 5.99337 13.4991 5.8 13.11L7.86 10C8.07903 10.0119 8.29854 9.9883 8.51 9.93L10.06 11.48C9.97528 11.7927 9.9678 12.1213 10.0382 12.4376C10.1086 12.7539 10.2548 13.0483 10.4642 13.2955C10.6736 13.5428 10.9399 13.7354 11.2402 13.8569C11.5406 13.9785 11.866 14.0252 12.1884 13.9931C12.5108 13.9611 12.8206 13.8512 13.0911 13.6729C13.3616 13.4946 13.5847 13.2532 13.7413 12.9696C13.8979 12.6859 13.9832 12.3685 13.99 12.0445C13.9967 11.7206 13.9247 11.3999 13.78 11.11L15.87 8H16C16.4345 7.99806 16.8566 7.85465 17.2024 7.59146C17.5482 7.32827 17.7988 6.95963 17.9164 6.5413C18.034 6.12298 18.0122 5.67773 17.8542 5.27292C17.6962 4.86811 17.4107 4.52576 17.0408 4.29768C16.671 4.06959 16.2369 3.96817 15.8042 4.00877C15.3716 4.04936 14.9639 4.22975 14.643 4.52266C14.322 4.81557 14.1051 5.20505 14.0252 5.63218C13.9453 6.05931 14.0066 6.50085 14.2 6.89L12.14 10C11.921 9.98806 11.7015 10.0117 11.49 10.07L9.93 8.52C10.0147 8.20728 10.0222 7.87865 9.95179 7.5624C9.88138 7.24615 9.73519 6.95174 9.5258 6.70449C9.31641 6.45725 9.05009 6.26458 8.74975 6.14305C8.44941 6.02153 8.12404 5.97479 7.80164 6.00685C7.47923 6.03892 7.16944 6.14883 6.89892 6.32714C6.62841 6.50544 6.40525 6.7468 6.24867 7.03044C6.09208 7.31409 6.00675 7.63153 6.00002 7.95545C5.99328 8.27938 6.06534 8.60009 6.21 8.89L4.13 12ZM0 4C0 2.9 0.9 2 2 2H18C18.5304 2 19.0391 2.21071 19.4142 2.58579C19.7893 2.96086 20 3.46957 20 4V16C20 16.5304 19.7893 17.0391 19.4142 17.4142C19.0391 17.7893 18.5304 18 18 18H2C1.46957 18 0.960859 17.7893 0.585786 17.4142C0.210714 17.0391 0 16.5304 0 16V4Z" fill="#F24099"/>
</svg>
